<mxfile host="app.diagrams.net" modified="2021-02-20T07:44:23.462Z" agent="5.0 (Windows NT 10.0; Win64; x64) AppleWebKit/537.36 (KHTML, like Gecko) Chrome/88.0.4324.182 Safari/537.36" etag="NxGp0gMoIDmWUn67TZXH" version="14.2.9" type="github">
  <diagram id="T5hu_AL-MImZs7sVISky" name="第 1 页">
    <mxGraphModel dx="1422" dy="762" grid="1" gridSize="10" guides="1" tooltips="1" connect="1" arrows="1" fold="1" page="1" pageScale="1" pageWidth="1169" pageHeight="827" math="0" shadow="0">
      <root>
        <mxCell id="0" />
        <mxCell id="1" parent="0" />
        <mxCell id="zsfXuhuUEuTOOfRLMiKy-39" value="" style="edgeStyle=orthogonalEdgeStyle;rounded=0;orthogonalLoop=1;jettySize=auto;html=1;fontSize=21;" edge="1" parent="1" source="zsfXuhuUEuTOOfRLMiKy-38" target="zsfXuhuUEuTOOfRLMiKy-36">
          <mxGeometry relative="1" as="geometry" />
        </mxCell>
        <mxCell id="zsfXuhuUEuTOOfRLMiKy-38" value="" style="rounded=1;whiteSpace=wrap;html=1;fillColor=#fff2cc;strokeColor=#d6b656;" vertex="1" parent="1">
          <mxGeometry x="60" y="542.5" width="1060" height="115" as="geometry" />
        </mxCell>
        <mxCell id="zsfXuhuUEuTOOfRLMiKy-29" value="" style="edgeStyle=orthogonalEdgeStyle;rounded=0;orthogonalLoop=1;jettySize=auto;html=1;" edge="1" parent="1" source="zsfXuhuUEuTOOfRLMiKy-27" target="zsfXuhuUEuTOOfRLMiKy-28">
          <mxGeometry relative="1" as="geometry">
            <Array as="points">
              <mxPoint x="380" y="530" />
              <mxPoint x="380" y="530" />
            </Array>
          </mxGeometry>
        </mxCell>
        <mxCell id="zsfXuhuUEuTOOfRLMiKy-27" value="" style="rounded=1;whiteSpace=wrap;html=1;fillColor=#fff2cc;strokeColor=#d6b656;" vertex="1" parent="1">
          <mxGeometry x="60" y="250" width="1060" height="270" as="geometry" />
        </mxCell>
        <mxCell id="zsfXuhuUEuTOOfRLMiKy-4" value="" style="edgeStyle=orthogonalEdgeStyle;rounded=0;orthogonalLoop=1;jettySize=auto;html=1;" edge="1" parent="1" source="zsfXuhuUEuTOOfRLMiKy-2" target="zsfXuhuUEuTOOfRLMiKy-3">
          <mxGeometry relative="1" as="geometry" />
        </mxCell>
        <mxCell id="zsfXuhuUEuTOOfRLMiKy-2" value="&lt;font style=&quot;font-size: 22px&quot;&gt;井下检测系统&lt;/font&gt;" style="rounded=1;whiteSpace=wrap;html=1;fillColor=#dae8fc;strokeColor=#6c8ebf;" vertex="1" parent="1">
          <mxGeometry x="90" y="90" width="1000" height="60" as="geometry" />
        </mxCell>
        <mxCell id="zsfXuhuUEuTOOfRLMiKy-3" value="&lt;font style=&quot;font-size: 16px&quot;&gt;采&lt;br&gt;煤&lt;br&gt;工&lt;br&gt;作&lt;br&gt;面&lt;br&gt;监&lt;br&gt;控&lt;br&gt;系&lt;br&gt;统&lt;/font&gt;" style="whiteSpace=wrap;html=1;rounded=1;strokeColor=#6c8ebf;fillColor=#dae8fc;" vertex="1" parent="1">
          <mxGeometry x="200" y="270" width="70" height="210" as="geometry" />
        </mxCell>
        <mxCell id="zsfXuhuUEuTOOfRLMiKy-7" value="" style="edgeStyle=orthogonalEdgeStyle;rounded=0;orthogonalLoop=1;jettySize=auto;html=1;" edge="1" parent="1" target="zsfXuhuUEuTOOfRLMiKy-8">
          <mxGeometry relative="1" as="geometry">
            <mxPoint x="345" y="210" as="sourcePoint" />
            <Array as="points">
              <mxPoint x="345" y="210" />
            </Array>
          </mxGeometry>
        </mxCell>
        <mxCell id="zsfXuhuUEuTOOfRLMiKy-8" value="&lt;font style=&quot;font-size: 16px&quot;&gt;井&lt;br&gt;下&lt;br&gt;胶&lt;br&gt;带&lt;br&gt;运&lt;br&gt;输&lt;br&gt;监&lt;br&gt;控&lt;br&gt;系&lt;br&gt;统&lt;/font&gt;" style="whiteSpace=wrap;html=1;rounded=1;strokeColor=#6c8ebf;fillColor=#dae8fc;" vertex="1" parent="1">
          <mxGeometry x="310" y="270" width="70" height="210" as="geometry" />
        </mxCell>
        <mxCell id="zsfXuhuUEuTOOfRLMiKy-9" value="" style="edgeStyle=orthogonalEdgeStyle;rounded=0;orthogonalLoop=1;jettySize=auto;html=1;" edge="1" parent="1" target="zsfXuhuUEuTOOfRLMiKy-10">
          <mxGeometry relative="1" as="geometry">
            <mxPoint x="425" y="210" as="sourcePoint" />
            <Array as="points">
              <mxPoint x="425" y="210" />
            </Array>
          </mxGeometry>
        </mxCell>
        <mxCell id="zsfXuhuUEuTOOfRLMiKy-10" value="&lt;font style=&quot;font-size: 16px&quot;&gt;提&lt;br&gt;升&lt;br&gt;机&lt;br&gt;监&lt;br&gt;控&lt;br&gt;系&lt;br&gt;统&lt;/font&gt;" style="whiteSpace=wrap;html=1;rounded=1;strokeColor=#6c8ebf;fillColor=#dae8fc;" vertex="1" parent="1">
          <mxGeometry x="430" y="270" width="70" height="210" as="geometry" />
        </mxCell>
        <mxCell id="zsfXuhuUEuTOOfRLMiKy-11" value="" style="edgeStyle=orthogonalEdgeStyle;rounded=0;orthogonalLoop=1;jettySize=auto;html=1;entryX=0.5;entryY=0;entryDx=0;entryDy=0;" edge="1" parent="1" target="zsfXuhuUEuTOOfRLMiKy-12">
          <mxGeometry relative="1" as="geometry">
            <mxPoint x="590" y="210" as="sourcePoint" />
            <Array as="points">
              <mxPoint x="590.5" y="210" />
            </Array>
          </mxGeometry>
        </mxCell>
        <mxCell id="zsfXuhuUEuTOOfRLMiKy-12" value="&lt;font style=&quot;font-size: 16px&quot;&gt;井&lt;br&gt;下&lt;br&gt;主&lt;br&gt;排&lt;br&gt;水&lt;br&gt;监&lt;br&gt;控&lt;br&gt;系&lt;br&gt;统&lt;/font&gt;" style="whiteSpace=wrap;html=1;rounded=1;strokeColor=#6c8ebf;fillColor=#dae8fc;" vertex="1" parent="1">
          <mxGeometry x="552.5" y="270" width="75" height="210" as="geometry" />
        </mxCell>
        <mxCell id="zsfXuhuUEuTOOfRLMiKy-13" value="" style="edgeStyle=orthogonalEdgeStyle;rounded=0;orthogonalLoop=1;jettySize=auto;html=1;" edge="1" parent="1" target="zsfXuhuUEuTOOfRLMiKy-14">
          <mxGeometry relative="1" as="geometry">
            <mxPoint x="590" y="210" as="sourcePoint" />
            <Array as="points">
              <mxPoint x="590" y="210" />
            </Array>
          </mxGeometry>
        </mxCell>
        <mxCell id="zsfXuhuUEuTOOfRLMiKy-14" value="&lt;font style=&quot;font-size: 16px&quot;&gt;矿&lt;br&gt;井&lt;br&gt;供&lt;br&gt;电&lt;br&gt;监&lt;br&gt;控&lt;br&gt;系&lt;br&gt;统&lt;/font&gt;" style="whiteSpace=wrap;html=1;rounded=1;strokeColor=#6c8ebf;fillColor=#dae8fc;" vertex="1" parent="1">
          <mxGeometry x="910" y="270" width="70" height="210" as="geometry" />
        </mxCell>
        <mxCell id="zsfXuhuUEuTOOfRLMiKy-17" value="&lt;font style=&quot;font-size: 16px&quot;&gt;井&lt;br&gt;下&lt;br&gt;主&lt;br&gt;排&lt;br&gt;水&lt;br&gt;监&lt;br&gt;控&lt;br&gt;系&lt;br&gt;统&lt;/font&gt;" style="whiteSpace=wrap;html=1;rounded=1;strokeColor=#6c8ebf;fillColor=#dae8fc;" vertex="1" parent="1">
          <mxGeometry x="552.5" y="270" width="75" height="210" as="geometry" />
        </mxCell>
        <mxCell id="zsfXuhuUEuTOOfRLMiKy-18" value="" style="edgeStyle=orthogonalEdgeStyle;rounded=0;orthogonalLoop=1;jettySize=auto;html=1;entryX=0.5;entryY=0;entryDx=0;entryDy=0;" edge="1" parent="1" source="zsfXuhuUEuTOOfRLMiKy-19">
          <mxGeometry relative="1" as="geometry">
            <mxPoint x="707.5" y="210" as="sourcePoint" />
            <Array as="points">
              <mxPoint x="708" y="210" />
            </Array>
            <mxPoint x="707.5" y="270" as="targetPoint" />
          </mxGeometry>
        </mxCell>
        <mxCell id="zsfXuhuUEuTOOfRLMiKy-19" value="&lt;font style=&quot;font-size: 16px&quot;&gt;主&lt;br&gt;通&lt;br&gt;风&lt;br&gt;机&lt;br&gt;监&lt;br&gt;控&lt;br&gt;系&lt;br&gt;统&lt;/font&gt;" style="whiteSpace=wrap;html=1;rounded=1;strokeColor=#6c8ebf;fillColor=#dae8fc;" vertex="1" parent="1">
          <mxGeometry x="670" y="270" width="75" height="210" as="geometry" />
        </mxCell>
        <mxCell id="zsfXuhuUEuTOOfRLMiKy-21" value="&lt;font style=&quot;font-size: 16px&quot;&gt;空&lt;br&gt;气&lt;br&gt;压&lt;br&gt;缩&lt;br&gt;机&lt;br&gt;监&lt;br&gt;控&lt;br&gt;系&lt;br&gt;统&lt;/font&gt;" style="whiteSpace=wrap;html=1;rounded=1;strokeColor=#6c8ebf;fillColor=#dae8fc;" vertex="1" parent="1">
          <mxGeometry x="790" y="270" width="75" height="210" as="geometry" />
        </mxCell>
        <mxCell id="zsfXuhuUEuTOOfRLMiKy-22" value="" style="edgeStyle=orthogonalEdgeStyle;rounded=0;orthogonalLoop=1;jettySize=auto;html=1;entryX=0.5;entryY=0;entryDx=0;entryDy=0;" edge="1" parent="1" target="zsfXuhuUEuTOOfRLMiKy-21">
          <mxGeometry relative="1" as="geometry">
            <mxPoint x="828" y="210" as="sourcePoint" />
            <Array as="points">
              <mxPoint x="828" y="210" />
              <mxPoint x="828" y="240" />
            </Array>
            <mxPoint x="817.5" y="270" as="targetPoint" />
          </mxGeometry>
        </mxCell>
        <mxCell id="zsfXuhuUEuTOOfRLMiKy-23" value="&lt;font style=&quot;font-size: 16px&quot;&gt;洗&lt;br&gt;煤&lt;br&gt;厂&lt;br&gt;综&lt;br&gt;合&lt;br&gt;自&lt;br&gt;动&lt;br&gt;化&lt;br&gt;系&lt;br&gt;统&lt;/font&gt;" style="whiteSpace=wrap;html=1;rounded=1;strokeColor=#6c8ebf;fillColor=#dae8fc;" vertex="1" parent="1">
          <mxGeometry x="90" y="270" width="70" height="210" as="geometry" />
        </mxCell>
        <mxCell id="zsfXuhuUEuTOOfRLMiKy-24" value="" style="edgeStyle=orthogonalEdgeStyle;rounded=0;orthogonalLoop=1;jettySize=auto;html=1;entryX=0.5;entryY=0;entryDx=0;entryDy=0;exitX=0.5;exitY=1;exitDx=0;exitDy=0;" edge="1" parent="1" source="zsfXuhuUEuTOOfRLMiKy-2" target="zsfXuhuUEuTOOfRLMiKy-23">
          <mxGeometry relative="1" as="geometry">
            <mxPoint x="600" y="160" as="sourcePoint" />
            <mxPoint x="245" y="280" as="targetPoint" />
          </mxGeometry>
        </mxCell>
        <mxCell id="zsfXuhuUEuTOOfRLMiKy-25" value="&lt;font style=&quot;font-size: 16px&quot;&gt;矿&lt;br&gt;井&lt;br&gt;火&lt;br&gt;灾&lt;br&gt;束&lt;br&gt;管&lt;br&gt;监&lt;br&gt;控&lt;br&gt;系&lt;br&gt;统&lt;/font&gt;" style="whiteSpace=wrap;html=1;rounded=1;strokeColor=#6c8ebf;fillColor=#dae8fc;" vertex="1" parent="1">
          <mxGeometry x="1020" y="270" width="70" height="210" as="geometry" />
        </mxCell>
        <mxCell id="zsfXuhuUEuTOOfRLMiKy-26" value="" style="edgeStyle=orthogonalEdgeStyle;rounded=0;orthogonalLoop=1;jettySize=auto;html=1;entryX=0.5;entryY=0;entryDx=0;entryDy=0;" edge="1" parent="1" target="zsfXuhuUEuTOOfRLMiKy-25">
          <mxGeometry relative="1" as="geometry">
            <mxPoint x="610" y="210" as="sourcePoint" />
            <Array as="points">
              <mxPoint x="1055" y="210" />
            </Array>
            <mxPoint x="965" y="270" as="targetPoint" />
          </mxGeometry>
        </mxCell>
        <mxCell id="zsfXuhuUEuTOOfRLMiKy-28" value="数据服务层" style="whiteSpace=wrap;html=1;rounded=1;strokeColor=#6c8ebf;fillColor=#dae8fc;fontSize=21;spacingTop=0;" vertex="1" parent="1">
          <mxGeometry x="90" y="570" width="580" height="60" as="geometry" />
        </mxCell>
        <mxCell id="zsfXuhuUEuTOOfRLMiKy-31" value="" style="edgeStyle=orthogonalEdgeStyle;rounded=0;orthogonalLoop=1;jettySize=auto;html=1;" edge="1" parent="1" target="zsfXuhuUEuTOOfRLMiKy-32">
          <mxGeometry relative="1" as="geometry">
            <mxPoint x="790" y="520" as="sourcePoint" />
            <Array as="points">
              <mxPoint x="790" y="520" />
            </Array>
          </mxGeometry>
        </mxCell>
        <mxCell id="zsfXuhuUEuTOOfRLMiKy-32" value="边缘计算" style="whiteSpace=wrap;html=1;rounded=1;strokeColor=#6c8ebf;fillColor=#dae8fc;fontSize=21;spacingTop=0;" vertex="1" parent="1">
          <mxGeometry x="690" y="570" width="200" height="60" as="geometry" />
        </mxCell>
        <mxCell id="zsfXuhuUEuTOOfRLMiKy-33" value="" style="edgeStyle=orthogonalEdgeStyle;rounded=0;orthogonalLoop=1;jettySize=auto;html=1;" edge="1" parent="1">
          <mxGeometry relative="1" as="geometry">
            <mxPoint x="1010" y="520" as="sourcePoint" />
            <Array as="points">
              <mxPoint x="1010" y="520" />
            </Array>
            <mxPoint x="1010" y="570" as="targetPoint" />
          </mxGeometry>
        </mxCell>
        <mxCell id="zsfXuhuUEuTOOfRLMiKy-35" value="数据库" style="shape=cylinder3;whiteSpace=wrap;html=1;boundedLbl=1;backgroundOutline=1;size=15;fontSize=21;fillColor=#dae8fc;strokeColor=#6c8ebf;" vertex="1" parent="1">
          <mxGeometry x="930" y="570" width="150" height="70" as="geometry" />
        </mxCell>
        <mxCell id="zsfXuhuUEuTOOfRLMiKy-36" value="IOT平台" style="whiteSpace=wrap;html=1;rounded=1;strokeColor=#6c8ebf;fillColor=#dae8fc;fontSize=21;spacingTop=0;" vertex="1" parent="1">
          <mxGeometry x="95" y="710" width="990" height="60" as="geometry" />
        </mxCell>
      </root>
    </mxGraphModel>
  </diagram>
</mxfile>
